<?xml version="1.0" encoding="utf-8"?><svg viewBox="0 0 512 512" xmlns="http://www.w3.org/2000/svg" xmlns:xlink="http://www.w3.org/1999/xlink"><style>:root>svg{display:none}:root>svg:target{display:block}</style><svg viewBox="0 0 256 512" id="caret" xmlns="http://www.w3.org/2000/svg"><!--! Font Awesome Pro 6.1.1 by @fontawesome - https://fontawesome.com License - https://fontawesome.com/license (Commercial License) Copyright 2022 Fonticons, Inc.--><path d="M118.6 105.4l128 127.1c6.3 7.1 9.4 15.3 9.4 22.6s-3.125 16.38-9.375 22.63l-128 127.1c-9.156 9.156-22.91 11.9-34.88 6.943S64 396.9 64 383.1V128c0-12.94 7.781-24.62 19.75-29.58s25.75-2.19 34.85 6.98z"/></svg><svg viewBox="0 0 48 48" id="email" xmlns="http://www.w3.org/2000/svg"><path d="M45 7H3a3 3 0 00-3 3v28a3 3 0 003 3h42a3 3 0 003-3V10a3 3 0 00-3-3zm-.64 2L24 24.74 3.64 9zM2 37.59V10.26l15.41 11.91zM3.41 39L19 23.41l4.38 3.39a1 1 0 001.22 0l4.4-3.39L44.59 39zM46 37.59L30.59 22.17 46 10.26z" data-name="8-Email"/></svg><svg viewBox="0 0 320 512" id="facebook" xmlns="http://www.w3.org/2000/svg"><!--! Font Awesome Pro 6.1.1 by @fontawesome - https://fontawesome.com License - https://fontawesome.com/license (Commercial License) Copyright 2022 Fonticons, Inc.--><path d="M279.14 288l14.22-92.66h-88.91v-60.13c0-25.35 12.42-50.06 52.24-50.06h40.42V6.26S260.43 0 225.36 0c-73.22 0-121.08 44.38-121.08 124.72v70.62H22.89V288h81.39v224h100.17V288z"/></svg><svg viewBox="0 0 448 512" id="instagram" xmlns="http://www.w3.org/2000/svg"><!--! Font Awesome Pro 6.1.1 by @fontawesome - https://fontawesome.com License - https://fontawesome.com/license (Commercial License) Copyright 2022 Fonticons, Inc.--><path d="M224.1 141c-63.6 0-114.9 51.3-114.9 114.9s51.3 114.9 114.9 114.9S339 319.5 339 255.9 287.7 141 224.1 141zm0 189.6c-41.1 0-74.7-33.5-74.7-74.7s33.5-74.7 74.7-74.7 74.7 33.5 74.7 74.7-33.6 74.7-74.7 74.7zm146.4-194.3c0 14.9-12 26.8-26.8 26.8-14.9 0-26.8-12-26.8-26.8s12-26.8 26.8-26.8 26.8 12 26.8 26.8zm76.1 27.2c-1.7-35.9-9.9-67.7-36.2-93.9-26.2-26.2-58-34.4-93.9-36.2-37-2.1-147.9-2.1-184.9 0-35.8 1.7-67.6 9.9-93.9 36.1s-34.4 58-36.2 93.9c-2.1 37-2.1 147.9 0 184.9 1.7 35.9 9.9 67.7 36.2 93.9s58 34.4 93.9 36.2c37 2.1 147.9 2.1 184.9 0 35.9-1.7 67.7-9.9 93.9-36.2 26.2-26.2 34.4-58 36.2-93.9 2.1-37 2.1-147.8 0-184.8zM398.8 388c-7.8 19.6-22.9 34.7-42.6 42.6-29.5 11.7-99.5 9-132.1 9s-102.7 2.6-132.1-9c-19.6-7.8-34.7-22.9-42.6-42.6-11.7-29.5-9-99.5-9-132.1s-2.6-102.7 9-132.1c7.8-19.6 22.9-34.7 42.6-42.6 29.5-11.7 99.5-9 132.1-9s102.7-2.6 132.1 9c19.6 7.8 34.7 22.9 42.6 42.6 11.7 29.5 9 99.5 9 132.1s2.7 102.7-9 132.1z"/></svg><svg viewBox="0 0 512 512" id="phone" xmlns="http://www.w3.org/2000/svg"><g data-name="1"><path d="M348.73 450.06a198.63 198.63 0 01-46.4-5.85c-52.43-12.65-106.42-44.74-152-90.36s-77.71-99.62-90.36-152c-13.32-55.1-3.82-102.24 26.72-132.78l8.72-8.72a42.2 42.2 0 0159.62 0l50.11 50.1a42.18 42.18 0 010 59.62l-29.6 29.59c14.19 24.9 33.49 49.82 56.3 72.63s47.75 42.12 72.64 56.31l29.59-29.6a42.15 42.15 0 0159.62 0l50.1 50.1a42.16 42.16 0 010 59.61l-8.73 8.72c-21.53 21.57-51.33 32.63-86.33 32.63zM125.22 78a12 12 0 00-8.59 3.56l-8.73 8.72c-22.87 22.87-29.55 60-18.81 104.49 11.37 47.13 40.64 96.1 82.41 137.86s90.73 71 137.87 82.41c44.5 10.74 81.61 4.06 104.48-18.81l8.72-8.72a12.16 12.16 0 000-17.19l-50.09-50.1a12.16 12.16 0 00-17.19 0l-37.51 37.51a15 15 0 01-17.5 2.72c-30.75-15.9-61.75-39.05-89.65-66.95s-51-58.88-66.94-89.63a15 15 0 012.71-17.5l37.52-37.51a12.16 12.16 0 000-17.19l-50.1-50.11a12.07 12.07 0 00-8.6-3.56z"/><path d="M364.75 269.73a15 15 0 01-15-15 99.37 99.37 0 00-99.25-99.26 15 15 0 010-30c71.27 0 129.25 58 129.25 129.26a15 15 0 01-15 15z"/><path d="M428.15 269.73a15 15 0 01-15-15c0-89.69-73-162.66-162.65-162.66a15 15 0 010-30c106.23 0 192.65 86.43 192.65 192.66a15 15 0 01-15 15z"/></g></svg></svg>